<?xml version="1.0" encoding="utf-8"?>
<!-- Generator: Adobe Illustrator 23.0.3, SVG Export Plug-In . SVG Version: 6.00 Build 0)  -->
<svg version="1.1" id="Слой_1" xmlns="http://www.w3.org/2000/svg" xmlns:xlink="http://www.w3.org/1999/xlink" x="0px" y="0px"
	 viewBox="0 0 1000 1000" style="enable-background:new 0 0 1000 1000;" xml:space="preserve">
<style type="text/css">
	.st0{fill:#28347F;}
	.st1{fill:#ED7028;}
	.st2{fill:#FFFFFF;}
</style>
<g>
	<path class="st0" d="M455.9,582.6v-41.14c0-11.28-4.07-21.08-12.05-29.06c-8.01-8.01-17.78-12.05-29.09-12.05
		c-11.28,0-21.08,4.04-29.06,12.05c-8.01,7.98-12.08,17.78-12.08,29.06v41.14h13.04v-13.84h56.2v13.84H455.9z M386.66,555.72v-14.26
		c0-7.72,2.79-14.42,8.23-19.86c5.45-5.45,12.14-8.2,19.86-8.2s14.42,2.76,19.86,8.2c5.45,5.45,8.23,12.14,8.23,19.86v14.26H386.66z
		"/>
	<path class="st0" d="M504.35,582.6v-13.04c-7.56-0.1-14.1-2.85-19.48-8.23c-5.45-5.45-8.2-12.14-8.2-19.86
		c0-7.72,2.76-14.42,8.2-19.86c5.38-5.35,11.92-8.11,19.48-8.2v-13.04c-11.12,0.1-20.76,4.13-28.68,12.05
		c-8.01,7.98-12.05,17.78-12.05,29.06c0,11.31,4.04,21.08,12.05,29.09C483.55,578.44,493.23,582.51,504.35,582.6z"/>
	<path class="st0" d="M542.8,500.36h-30.73v82.25h13.04v-27.68h2.66l0.13,0.16l21.75,27.52h16.57l-21.88-27.75l0.74-0.06
		c5.58-0.45,10.48-2.76,14.58-6.86c4.65-4.61,6.99-10.28,6.99-16.85v-6.92c0-6.54-2.34-12.21-6.99-16.85
		C555.03,502.7,549.36,500.36,542.8,500.36z M553.59,531.08c0,2.98-1.06,5.54-3.14,7.66c-2.08,2.08-4.68,3.14-7.66,3.14h-17.69
		V513.4h17.69c2.98,0,5.58,1.06,7.66,3.14c2.08,2.08,3.14,4.65,3.14,7.63V531.08z"/>
	<path class="st0" d="M656.6,541.46c0-11.28-4.04-21.08-12.05-29.06c-8.01-8.01-17.78-12.05-29.06-12.05
		c-11.31,0-21.08,4.04-29.09,12.05c-7.98,7.98-12.05,17.78-12.05,29.06c0,11.31,4.07,21.08,12.05,29.09
		c8.01,7.98,17.78,12.05,29.09,12.05c11.28,0,21.08-4.07,29.06-12.05C652.57,562.55,656.6,552.77,656.6,541.46z M635.36,561.33
		c-5.48,5.48-12.14,8.23-19.86,8.23c-7.75,0-14.42-2.76-19.87-8.23c-5.48-5.45-8.23-12.14-8.23-19.86c0-7.72,2.76-14.42,8.23-19.86
		c5.45-5.45,12.14-8.2,19.87-8.2c7.72,0,14.39,2.76,19.86,8.2c5.45,5.48,8.2,12.14,8.2,19.86
		C643.56,549.19,640.81,555.88,635.36,561.33z"/>
	<path class="st1" d="M705.46,582.6h13.46v-40.72h-13.07v27.68h-0.38c-7.72,0-14.42-2.76-19.86-8.23
		c-5.45-5.45-8.23-12.14-8.23-19.86c0-7.72,2.79-14.42,8.23-19.86c5.35-5.35,11.92-8.11,19.45-8.2v-13.04
		c-11.12,0.1-20.76,4.13-28.64,12.05c-8.01,7.98-12.08,17.78-12.08,29.06c0,11.31,4.07,21.08,12.08,29.09
		C684.38,578.53,694.15,582.6,705.46,582.6z"/>
	<polygon class="st1" points="740.61,582.6 754.39,582.6 781.11,500.36 767.3,500.36 753.91,541.56 753.53,540.37 740.52,500.36 
		726.77,500.36 747.08,562.77 	"/>
	<polygon class="st1" points="858.14,516.38 858.14,582.6 871.18,582.6 871.18,500.36 854.2,500.36 830.04,530.99 805.91,500.36 
		788.93,500.36 788.93,582.6 801.97,582.6 801.97,516.31 830.04,551.97 838.56,541.21 	"/>
	<g>
		<g>
			<path class="st0" d="M342.54,582.6h-15.75c0-26.45-21.53-47.97-47.97-47.97c-26.45,0-47.97,21.51-47.97,47.97h-15.75
				c0-35.13,28.58-63.71,63.71-63.71c2.7,0,5.35,0.18,7.97,0.49c5.45,0.69,10.71,2.07,15.67,4.05
				C325.93,532.85,342.54,555.82,342.54,582.6z"/>
			<path class="st0" d="M302.47,523.44c-4.96-1.99-10.22-3.37-15.67-4.05c-2.62-0.32-5.27-0.49-7.97-0.49
				c-35.13,0-63.71,28.58-63.71,63.71h15.75c0-26.45,21.51-47.97,47.97-47.97c26.43,0,47.97,21.51,47.97,47.97h15.75
				C342.54,555.82,325.93,532.85,302.47,523.44z M278.83,527.75c-27.93,0-51.04,20.96-54.42,47.97h-1.99
				c3.4-28.09,27.4-49.93,56.41-49.93c28.99,0,52.98,21.85,56.39,49.93h-1.97C329.84,548.71,306.74,527.75,278.83,527.75z"/>
		</g>
	</g>
	<g>
		<g>
			<path class="st1" d="M303,497.3l-0.37,15.26c-5-1.79-10.25-3.05-15.69-3.66l0.31-12.01c0.28-8.99-0.73-17.34-3.01-24.88
				c-6.24-20.59-26.2-54.46-89.81-49.76l-1.16-15.71c77.31-5.71,99.93,40.7,106.03,60.92C302.07,476.64,303.31,486.67,303,497.3z"/>
		</g>
	</g>
	<circle class="st0" cx="301.19" cy="567.25" r="12.56"/>
	<g>
		<circle class="st1" cx="266.26" cy="488.67" r="12.56"/>
	</g>
	<g>
		<path class="st1" d="M217.37,444.4l-10.07-12.11c13.66-11.36,38.76-16.93,55.93-12.43l-3.99,15.23
			C246.81,431.84,227.25,436.18,217.37,444.4z"/>
	</g>
</g>
<rect x="-21.87" y="-31" class="st1" width="1048.75" height="1048.75"/>
<g>
	<path class="st2" d="M423.68,588.27v-41.14c0-11.28-4.07-21.08-12.05-29.06c-8.01-8.01-17.78-12.05-29.09-12.05
		c-11.28,0-21.08,4.04-29.06,12.05c-8.01,7.98-12.08,17.78-12.08,29.06v41.14h13.04v-13.84h56.2v13.84H423.68z M354.44,561.39
		v-14.26c0-7.72,2.79-14.42,8.23-19.86c5.45-5.45,12.14-8.2,19.86-8.2c7.72,0,14.42,2.76,19.86,8.2c5.45,5.45,8.23,12.14,8.23,19.86
		v14.26H354.44z"/>
	<path class="st2" d="M472.12,588.27v-13.04c-7.56-0.1-14.1-2.85-19.48-8.23c-5.45-5.45-8.2-12.14-8.2-19.86
		c0-7.72,2.76-14.42,8.2-19.86c5.38-5.35,11.92-8.11,19.48-8.2v-13.04c-11.12,0.1-20.76,4.13-28.68,12.05
		c-8.01,7.98-12.05,17.78-12.05,29.06c0,11.31,4.04,21.08,12.05,29.09C451.33,584.1,461.01,588.17,472.12,588.27z"/>
	<path class="st2" d="M510.57,506.02h-30.73v82.25h13.04v-27.68h2.66l0.13,0.16l21.75,27.52h16.57l-21.88-27.75l0.74-0.06
		c5.58-0.45,10.48-2.76,14.58-6.86c4.65-4.61,6.99-10.28,6.99-16.85v-6.92c0-6.54-2.34-12.21-6.99-16.85
		C522.81,508.36,517.14,506.02,510.57,506.02z M521.37,536.75c0,2.98-1.06,5.54-3.14,7.66c-2.08,2.08-4.68,3.14-7.66,3.14h-17.69
		v-28.48h17.69c2.98,0,5.57,1.06,7.66,3.14c2.08,2.08,3.14,4.65,3.14,7.63V536.75z"/>
	<path class="st2" d="M624.38,547.13c0-11.28-4.04-21.08-12.05-29.06c-8.01-8.01-17.78-12.05-29.06-12.05
		c-11.31,0-21.08,4.04-29.09,12.05c-7.98,7.98-12.05,17.78-12.05,29.06c0,11.31,4.07,21.08,12.05,29.09
		c8.01,7.98,17.78,12.05,29.09,12.05c11.28,0,21.08-4.07,29.06-12.05C620.34,568.21,624.38,558.44,624.38,547.13z M603.14,566.99
		c-5.48,5.48-12.14,8.23-19.86,8.23c-7.75,0-14.42-2.76-19.87-8.23c-5.48-5.45-8.23-12.14-8.23-19.86c0-7.72,2.76-14.42,8.23-19.86
		c5.45-5.45,12.14-8.2,19.87-8.2c7.72,0,14.39,2.76,19.86,8.2c5.45,5.48,8.2,12.14,8.2,19.86
		C611.34,554.85,608.58,561.55,603.14,566.99z"/>
	<path class="st2" d="M673.24,588.27h13.46v-40.72h-13.07v27.68h-0.38c-7.72,0-14.42-2.76-19.86-8.23
		c-5.45-5.45-8.23-12.14-8.23-19.86c0-7.72,2.79-14.42,8.23-19.86c5.35-5.35,11.92-8.11,19.45-8.2v-13.04
		c-11.12,0.1-20.76,4.13-28.64,12.05c-8.01,7.98-12.08,17.78-12.08,29.06c0,11.31,4.07,21.08,12.08,29.09
		C652.16,584.2,661.93,588.27,673.24,588.27z"/>
	<polygon class="st2" points="708.39,588.27 722.17,588.27 748.89,506.02 735.08,506.02 721.69,547.23 721.3,546.04 708.29,506.02 
		694.55,506.02 714.86,568.44 	"/>
	<polygon class="st2" points="825.92,522.04 825.92,588.27 838.96,588.27 838.96,506.02 821.97,506.02 797.82,536.65 773.69,506.02 
		756.71,506.02 756.71,588.27 769.75,588.27 769.75,521.98 797.82,557.64 806.34,546.87 	"/>
	<path class="st2" d="M270.24,529.11c-4.96-1.99-10.22-3.37-15.67-4.05c-2.62-0.32-5.27-0.49-7.97-0.49
		c-35.13,0-63.71,28.58-63.71,63.71h15.75c0-26.45,21.51-47.97,47.97-47.97c26.43,0,47.97,21.51,47.97,47.97h15.75
		C310.32,561.48,293.7,538.51,270.24,529.11z"/>
	<circle class="st2" cx="268.97" cy="572.92" r="12.56"/>
	<g>
		<circle class="st2" cx="234.03" cy="494.33" r="12.56"/>
	</g>
	<path class="st2" d="M267.07,473.13c-3.61-11.97-13.03-33.14-36.17-47.22l0.1-0.38c-0.41-0.11-0.83-0.2-1.25-0.3
		c-15.85-9.3-37.94-15.28-68.71-13.01l1.16,15.71c11.14-0.82,20.93-0.46,29.55,0.8c-6.35,2.34-12.15,5.47-16.68,9.24l10.07,12.11
		c9.14-7.6,26.57-11.88,38.97-9.9c16.84,10.74,24.46,26.14,27.91,37.51c2.28,7.54,3.29,15.88,3.01,24.88l-0.31,12.01
		c5.43,0.61,10.69,1.87,15.69,3.66l0.37-15.26C271.09,492.34,269.85,482.3,267.07,473.13z"/>
</g>
</svg>
